<svg xmlns="http://www.w3.org/2000/svg" xmlns:xlink="http://www.w3.org/1999/xlink" width="910" height="211.97"><rect width="910" height="211.97" rx="5" ry="5" class="a"/><svg y="0%" x="0%"><circle cx="20" cy="20" r="6" fill="#ff5f58"/><circle cx="40" cy="20" r="6" fill="#ffbd2e"/><circle cx="60" cy="20" r="6" fill="#18c132"/></svg><svg height="151.97" viewBox="0 0 87 15.197" width="870" x="15" xmlns="http://www.w3.org/2000/svg" xmlns:xlink="http://www.w3.org/1999/xlink" y="50"><style>@keyframes n{0%{transform:translateX(0)}3.5%{transform:translateX(-174px)}4%{transform:translateX(-348px)}12.3%{transform:translateX(-435px)}14%{transform:translateX(-522px)}15.4%{transform:translateX(-609px)}15.9%{transform:translateX(-696px)}19.5%{transform:translateX(-783px)}39.7%{transform:translateX(-1044px)}65.8%{transform:translateX(-1131px)}70.3%{transform:translateX(-1218px)}75.7%{transform:translateX(-1305px)}81.4%{transform:translateX(-1392px)}81.6%{transform:translateX(-1566px)}81.9%{transform:translateX(-1740px)}to{transform:translateX(-1827px)}}.a{fill:#171717}.f,.g{fill:#b1e969;font-weight:700}.g{fill:#82fff7}.h,.i{fill:#dedacf}.i{text-decoration:underline}.j{fill:#fff;font-weight:700}.k{fill:#b1e969}</style><g font-size="1.67" font-family="Monaco,Consolas,Menlo,'Bitstream Vera Sans Mono','Powerline Symbols',monospace"><defs><symbol id="1"><text y="1.67" class="f">➜</text><text x="3.006" y="1.67" class="g">~</text></symbol><symbol id="2"><text y="1.67" class="f">➜</text><text x="3.006" y="1.67" class="g">~</text><text x="5.01" y="1.67" class="h">lanscan</text><text x="13.026" y="1.67" class="h">-s</text><text x="16.032" y="1.67" class="h">192.168.10.0/24</text></symbol><symbol id="3"><text y="1.67" class="i">192.168.10.1</text><text x="13.026" y="1.67" class="j">→</text><text x="15.03" y="1.67" class="h">32:10:74:15:54:29</text><text x="33.066" y="1.67" class="j">→</text><text x="35.07" y="1.67" class="h">Cisco</text><text x="41.082" y="1.67" class="h">Systems,</text><text x="50.1" y="1.67" class="h">Inc</text><text x="54.108" y="1.67" class="j">→</text><text x="57.114" y="1.67" class="k">active</text><text x="64.128" y="1.67" class="h">(</text><text x="65.13" y="1.67" fill="#ff615a">gateway</text><text x="72.144" y="1.67" class="h">)</text></symbol><symbol id="4"><text y="1.67" class="i">192.168.10.2</text><text x="13.026" y="1.67" class="j">→</text><text x="15.03" y="1.67" class="h">36:4c:65:25:6e:a8</text><text x="33.066" y="1.67" class="j">→</text><text x="35.07" y="1.67" class="h">Apple,</text><text x="42.084" y="1.67" class="h">Inc.</text><text x="47.094" y="1.67" class="j">→</text><text x="50.1" y="1.67" class="k">active</text></symbol><symbol id="5"><text y="1.67" class="i">192.168.10.9</text><text x="13.026" y="1.67" class="j">→</text><text x="15.03" y="1.67" class="h">9e:76:3b:23:85:6a</text><text x="33.066" y="1.67" class="j">→</text><text x="35.07" y="1.67" class="h">Oracle</text><text x="42.084" y="1.67" class="h">Corporation</text></symbol><symbol id="6"><text y="1.67" class="i">192.168.10.10</text><text x="14.028" y="1.67" class="j">→</text><text x="16.032" y="1.67" class="h">77:9e:a4:e9:c9:53</text><text x="34.068" y="1.67" class="j">→</text><text x="36.072" y="1.67" class="h">Xiaomi</text><text x="43.086" y="1.67" class="h">Communications</text><text x="58.116" y="1.67" class="h">Co</text><text x="61.122" y="1.67" class="h">Ltd</text></symbol><symbol id="a"><path fill="transparent" d="M0 0h87v8H0z"/></symbol></defs><path class="a" d="M0 0h87v15.197H0z"/><g style="animation-duration:7.709954s;animation-iteration-count:infinite;animation-name:n;animation-timing-function:steps(1,end)"><svg width="1914"><svg><use xlink:href="#a"/></svg><svg x="87"><use xlink:href="#a"/></svg><svg x="174"><use xlink:href="#a"/></svg><svg x="261"><use xlink:href="#a"/><use xlink:href="#1"/></svg><svg x="348"><use xlink:href="#a"/><use xlink:href="#1"/></svg><svg x="435"><use xlink:href="#a"/><text y="1.67" class="f">➜</text><text x="3.006" y="1.67" class="g">~</text><text x="5.01" y="1.67" class="h">l</text></svg><svg x="522"><use xlink:href="#a"/><text y="1.67" class="f">➜</text><text x="3.006" y="1.67" class="g">~</text><text x="5.01" y="1.67" class="h">la</text></svg><svg x="609"><use xlink:href="#a"/><text y="1.67" class="f">➜</text><text x="3.006" y="1.67" class="g">~</text><text x="5.01" y="1.67" class="h">lan</text></svg><svg x="696"><use xlink:href="#a"/><text y="1.67" class="f">➜</text><text x="3.006" y="1.67" class="g">~</text><text x="5.01" y="1.67" class="h">lans</text></svg><svg x="783"><use xlink:href="#a"/><use xlink:href="#2"/></svg><svg x="870"><use xlink:href="#a"/><use xlink:href="#2"/></svg><svg x="957"><use xlink:href="#a"/><use xlink:href="#2"/></svg><svg x="1044"><use xlink:href="#a"/><use xlink:href="#2"/></svg><svg x="1131"><use xlink:href="#a"/><use xlink:href="#2"/><use xlink:href="#3" y="2.171"/></svg><svg x="1218"><use xlink:href="#a"/><use xlink:href="#2"/><use xlink:href="#3" y="2.171"/><use xlink:href="#4" y="4.342"/></svg><svg x="1305"><use xlink:href="#a"/><use xlink:href="#2"/><use xlink:href="#3" y="2.171"/><use xlink:href="#4" y="4.342"/><use xlink:href="#5" y="6.513"/></svg><svg x="1392"><use xlink:href="#a"/><use xlink:href="#2"/><use xlink:href="#3" y="2.171"/><use xlink:href="#4" y="4.342"/><use xlink:href="#5" y="6.513"/><use xlink:href="#6" y="8.684"/></svg><svg x="1479"><use xlink:href="#a"/><use xlink:href="#2"/><use xlink:href="#3" y="2.171"/><use xlink:href="#4" y="4.342"/><use xlink:href="#5" y="6.513"/><use xlink:href="#6" y="8.684"/></svg><svg x="1566"><use xlink:href="#a"/><use xlink:href="#2"/><use xlink:href="#3" y="2.171"/><use xlink:href="#4" y="4.342"/><use xlink:href="#5" y="6.513"/><use xlink:href="#6" y="8.684"/></svg><svg x="1653"><use xlink:href="#a"/><use xlink:href="#2"/><use xlink:href="#3" y="2.171"/><use xlink:href="#4" y="4.342"/><use xlink:href="#5" y="6.513"/><use xlink:href="#6" y="8.684"/><use xlink:href="#1" y="10.855"/></svg><svg x="1740"><use xlink:href="#a"/><use xlink:href="#2"/><use xlink:href="#3" y="2.171"/><use xlink:href="#4" y="4.342"/><use xlink:href="#5" y="6.513"/><use xlink:href="#6" y="8.684"/><use xlink:href="#1" y="10.855"/></svg><svg x="1827"><use xlink:href="#a"/><use xlink:href="#2"/><use xlink:href="#3" y="2.171"/><use xlink:href="#4" y="4.342"/><use xlink:href="#5" y="6.513"/><use xlink:href="#6" y="8.684"/><use xlink:href="#1" y="10.855"/></svg></svg></g></g></svg></svg>